# xmcd CD database file
#
# Track frame offsets:
#	183
#	12273
#	21223
#	95180
#	126393
#
# Disc length: 2479 seconds
#
# Revision: 0
# Processed by: cddbd v1.4PL0 Copyright (c) Steve Scherf et al.
# Submitted via: CDex 1.50
#
DISCID=3e09ad05
DTITLE=Charles Mingus - Live in Stockholm 1964
DYEAR=1964
DGENRE=Jazz
TTITLE0=So Long Eric
TTITLE1=Meditations
TTITLE2=Meditations
TTITLE3=So long Eric
TTITLE4=Orange was the colour of her dress
EXTD=YEAR: 1964
EXTT0=
EXTT1=
EXTT2=
EXTT3=
EXTT4=
PLAYORDER=
